HIERARCHY
ROOT Hips
{
	OFFSET -3.958830 18.904000 13.208200
	CHANNELS 6 Xposition Yposition Zposition Zrotation Yrotation Xrotation 
	JOINT LHipJoint
	{
		OFFSET 0.000000 0.000000 0.000000
		CHANNELS 3 Zrotation Yrotation Xrotation
		JOINT LeftUpLeg
		{
			OFFSET 1.800000 -1.400000 0.085000
			CHANNELS 3 Zrotation Yrotation Xrotation
			JOINT LeftLeg
			{
				OFFSET 2.215000 -6.000000 0.000000
				CHANNELS 3 Zrotation Yrotation Xrotation
				JOINT LeftFoot
				{
					OFFSET 2.500000 -6.900000 0.000000
					CHANNELS 3 Zrotation Yrotation Xrotation
					JOINT LeftToeBase
					{
						OFFSET 0.200000 -0.500000 1.950000
						CHANNELS 3 Zrotation Yrotation Xrotation
						End Site
						{
							OFFSET 0.000000 0.000000 0.000000
						}
					}
				}
			}
		}
	}
	JOINT RHipJoint
	{
		OFFSET 0.000000 0.000000 0.000000
		CHANNELS 3 Zrotation Yrotation Xrotation
		JOINT RightUpLeg
		{
			OFFSET -1.800000 -1.400000 0.085000
			CHANNELS 3 Zrotation Yrotation Xrotation
			JOINT RightLeg
			{
				OFFSET -2.215000 -6.000000 0.000000
				CHANNELS 3 Zrotation Yrotation Xrotation
				JOINT RightFoot
				{
					OFFSET -2.500000 -6.900000 0.000000
					CHANNELS 3 Zrotation Yrotation Xrotation
					JOINT RightToeBase
					{
						OFFSET -0.200000 -0.500000 1.950000
						CHANNELS 3 Zrotation Yrotation Xrotation
						End Site
						{
							OFFSET 0.000000 0.000000 0.000000
						}
					}
				}
			}
		}
	}
	JOINT LowerBack
	{
		OFFSET 0.000000 0.000000 0.000000
		CHANNELS 3 Zrotation Yrotation Xrotation
		JOINT Spine
		{
			OFFSET -0.087000 1.940000 -0.288900
			CHANNELS 3 Zrotation Yrotation Xrotation
			JOINT Spine1
			{
				OFFSET 0.000000 1.950000 0.060000
				CHANNELS 3 Zrotation Yrotation Xrotation
				JOINT Neck
				{
					OFFSET 0.000000 0.000000 0.000000
					CHANNELS 3 Zrotation Yrotation Xrotation
					JOINT Neck1
					{
						OFFSET 0.000000 1.600000 0.340000
						CHANNELS 3 Zrotation Yrotation Xrotation
						JOINT Head
						{
							OFFSET 0.000000 1.667000 -0.240000
							CHANNELS 3 Zrotation Yrotation Xrotation
							End Site
							{
								OFFSET 0.000000 0.000000 0.000000
							}
						}
					}
				}
				JOINT LeftShoulder
				{
					OFFSET 0.000000 0.000000 0.000000
					CHANNELS 3 Zrotation Yrotation Xrotation
					JOINT LeftArm
					{
						OFFSET 2.700000 1.550000 -0.730000
						CHANNELS 3 Zrotation Yrotation Xrotation
						JOINT LeftForeArm
						{
							OFFSET 5.450000 0.000000 0.000000
							CHANNELS 3 Zrotation Yrotation Xrotation
							JOINT LeftHand
							{
								OFFSET 3.450000 0.000000 0.000000
								CHANNELS 3 Zrotation Yrotation Xrotation
								JOINT LeftHandIndex1
								{
									OFFSET 0.750000 0.000000 0.000000
									CHANNELS 3 Zrotation Yrotation Xrotation
									End Site
									{
										OFFSET 0.000000 0.000000 0.000000
									}
								}
							}
						}
					}
				}
				JOINT RightShoulder
				{
					OFFSET 0.000000 0.000000 0.000000
					CHANNELS 3 Zrotation Yrotation Xrotation
					JOINT RightArm
					{
						OFFSET -2.700000 1.550000 -0.730000
						CHANNELS 3 Zrotation Yrotation Xrotation
						JOINT RightForeArm
						{
							OFFSET -5.450000 0.000000 0.000000
							CHANNELS 3 Zrotation Yrotation Xrotation
							JOINT RightHand
							{
								OFFSET -3.450000 0.000000 0.000000
								CHANNELS 3 Zrotation Yrotation Xrotation
								JOINT RightHandIndex1
								{
									OFFSET -0.750000 0.000000 0.000000
									CHANNELS 3 Zrotation Yrotation Xrotation
									End Site
									{
										OFFSET 0.000000 0.000000 0.000000
									}
								}
							}
						}
					}
				}
			}
		}
	}
}
MOTION
Frames: 14
Frame Time: 0.016667
-0.553150 17.035690 -1.531130 -3.889205 11.101576 1.013556 -14.922444 12.925199 2.237305 8.221308 -1.117086 -13.997293 -4.271944 5.686223 15.627268 -0.636848 4.274454 3.465116 0.277290 -0.149710 -0.037540 18.453079 -11.651899 2.493434 -21.118691 1.302943 -16.888227 13.546744 -10.952126 26.346453 -0.188448 -6.176744 2.505211 0.115760 0.760830 0.146600 -4.411849 0.354384 -6.454523 9.265273 1.173034 1.547340 -4.686043 0.884285 5.929116 1.725736 -1.331976 -5.133698 -2.118554 0.109424 26.706064 -0.717720 -3.345550 3.021610 -18.637770 4.179378 0.355734 -55.894720 -2.992992 -5.972058 1.990899 -33.973526 -2.199838 -4.050875 2.959756 0.193360 0.538950 -0.585280 0.379850 15.213485 -2.282297 2.231795 61.306329 8.592069 -6.197121 21.158717 56.679602 6.726396 1.658058 -1.937261 -0.378030 0.310560 0.062520 -0.148910 
-0.559000 17.045850 -1.545260 -4.194431 11.671677 0.838761 -14.873202 12.885666 2.236877 8.434675 -1.138399 -14.317006 -4.128385 5.633209 15.691655 -0.643689 4.210990 3.478345 0.286640 -0.128380 -0.032550 18.489046 -11.739420 2.492030 -20.814328 1.241055 -16.216915 13.485297 -10.806627 25.751825 -0.196485 -6.099898 2.547695 0.119940 0.737400 0.124830 -4.556881 0.564137 -6.482317 10.476134 1.171796 1.684319 -5.693720 0.909707 6.079370 2.015667 -1.370539 -5.236028 -2.176451 -0.003507 27.453530 -0.526650 -3.592760 2.519090 -18.486930 4.079133 0.387061 -55.867299 -3.062306 -6.133342 3.523515 -34.551602 -2.585820 -4.011123 2.932679 0.214230 0.512440 -0.564310 0.383400 14.390820 -2.193115 2.462978 61.760371 9.199781 -5.946831 20.881821 57.438670 6.695685 1.657972 -1.924030 -0.378620 0.324900 0.049470 -0.149290 
-0.574150 17.048760 -1.554380 -4.261470 12.433869 0.937884 -14.809293 12.778123 2.233722 8.574937 -1.203463 -14.773402 -4.252736 5.644228 15.791085 -0.650254 4.191357 3.488146 0.295110 -0.120780 -0.031880 18.546646 -11.854550 2.489856 -20.633238 1.130483 -15.488241 13.380488 -10.559900 24.695594 -0.186802 -6.014307 2.586339 0.127800 0.744280 0.122030 -4.756293 0.936788 -6.478975 11.857641 1.240270 1.394876 -7.334679 0.983692 6.466708 2.437845 -1.436890 -5.285132 -2.088895 -0.045423 27.464785 -0.371320 -3.949850 2.505960 -17.213270 4.828069 0.344508 -56.200956 -3.127949 -6.296219 5.440265 -37.068527 -3.094392 -3.987484 2.948667 0.211300 0.511090 -0.567230 0.393640 12.186508 -2.906387 2.717826 63.349838 10.388953 -4.855382 21.255107 58.845005 7.104343 1.644429 -1.964809 -0.380790 0.333100 0.042750 -0.143390 
-0.586440 17.066640 -1.568230 -4.477335 13.586567 0.747421 -14.732732 12.698007 2.244346 8.849544 -1.218121 -14.950130 -4.384011 5.616215 15.598104 -0.657202 4.151968 3.500230 0.303860 -0.112230 -0.018260 18.607669 -12.009726 2.463829 -19.953341 1.023980 -14.574201 12.756540 -10.238292 24.051896 -0.188822 -5.901696 2.640925 0.127730 0.729910 0.118970 -4.998179 1.316648 -6.501240 13.938726 1.120044 1.290511 -9.457296 0.906381 6.905887 3.004345 -1.617797 -5.438469 -2.269850 -0.197044 28.132918 -0.705940 -4.194750 2.216060 -16.552985 4.987890 0.447846 -55.496575 -2.937375 -6.544770 7.789912 -40.126713 -3.810622 -3.945515 2.954814 0.225550 0.497870 -0.550920 0.395780 10.262416 -2.979959 3.166901 64.273218 11.821903 -3.541565 22.218293 60.328001 7.882150 1.635905 -1.991524 -0.378920 0.339820 0.034010 -0.145590 
-0.608650 17.084710 -1.568710 -4.367867 14.820091 0.575241 -14.694937 12.648577 2.261870 9.062048 -1.171858 -14.919296 -4.659199 5.635025 15.295377 -0.665338 4.124941 3.503376 0.318150 -0.081460 -0.008710 18.633214 -12.129686 2.423579 -19.205443 0.886715 -13.347711 11.971539 -9.756685 23.041663 -0.183715 -5.750091 2.712211 0.143640 0.711400 0.107690 -5.133544 1.575858 -6.506405 14.937424 1.115726 1.186380 -10.661511 0.952283 7.402805 3.332293 -1.837797 -5.565760 -2.556044 -0.553405 28.570296 -1.137470 -4.628300 1.566070 -15.968618 5.133845 0.653890 -54.855320 -2.433550 -6.939239 10.175648 -43.971137 -4.764047 -3.894335 2.963114 0.232750 0.484520 -0.534790 0.395090 8.983963 -2.845033 3.434800 63.879563 13.284924 -1.933022 24.608901 61.941395 9.596852 1.633007 -2.022147 -0.375850 0.352190 0.024190 -0.143980 
-0.626380 17.110370 -1.574400 -4.378436 16.039355 0.325777 -14.650826 12.599997 2.303066 9.545764 -1.087737 -14.732360 -5.230749 5.667916 14.536146 -0.623271 4.075590 3.506843 0.348960 -0.034240 0.003680 18.661951 -12.258532 2.378330 -18.120889 0.791702 -12.307322 10.698406 -9.138526 22.256146 -0.190021 -5.552903 2.802460 0.143610 0.671790 0.119640 -5.287989 1.843168 -6.542639 16.208402 1.067965 1.172706 -11.904800 0.970099 8.024386 3.622409 -1.967312 -6.004480 -2.736683 -0.796474 29.433566 -1.217240 -5.052170 1.064970 -15.157225 4.671565 1.208886 -54.265969 -1.668626 -7.526024 12.812245 -47.666375 -6.036290 -3.819001 3.011269 0.232530 0.457180 -0.495810 0.406540 7.559183 -2.090926 3.910961 63.887115 15.106641 -0.586799 25.130981 63.650769 10.260110 1.640542 -2.055110 -0.331680 0.329140 -0.003820 -0.128370 
-0.634030 17.138980 -1.580370 -4.537959 17.313894 0.079064 -14.603221 12.540710 2.333595 9.953600 -1.032278 -14.609598 -5.595471 5.656244 13.874052 -0.617797 4.052222 3.519518 0.345990 -0.029230 -0.006320 18.700281 -12.400141 2.336293 -16.787192 0.693830 -11.349872 9.121839 -8.457401 21.578996 -0.176121 -5.353613 2.901771 0.142640 0.673480 0.111850 -5.466252 2.156046 -6.565238 17.824879 1.033780 1.056189 -13.412651 1.018639 8.710394 3.943470 -1.951655 -6.355715 -2.617535 -1.081614 29.958544 -1.057110 -5.621930 0.806920 -14.688759 4.119498 1.772593 -53.068536 -0.648012 -8.164694 15.799857 -52.168191 -7.849088 -3.766779 3.020253 0.235580 0.448970 -0.488880 0.412490 6.432509 -1.414707 4.301612 63.861959 17.029755 0.797815 24.980257 65.226078 10.550134 1.632325 -2.057630 -0.330980 0.344190 -0.004350 -0.119060 
-0.634170 17.158930 -1.577710 -4.519133 18.338053 -0.034066 -14.576693 12.469175 2.347682 10.233385 -0.961542 -14.314504 -5.849754 5.609837 13.185518 -0.630980 4.022772 3.520199 0.350350 -0.012860 0.010450 18.722333 -12.517476 2.324116 -15.830770 0.610188 -10.516432 7.843774 -7.871995 20.685938 -0.167882 -5.204302 2.960922 0.153680 0.651090 0.118780 -5.578770 2.474915 -6.583560 18.692898 1.233810 0.846322 -14.243133 1.237416 9.447843 4.463720 -1.282980 -6.712449 -1.343108 -1.790080 29.996191 -2.112450 -5.429690 0.569320 -14.325869 3.489179 2.336782 -51.548505 0.677420 -8.772608 18.668435 -56.817710 -9.961725 -3.733484 3.039334 0.231900 0.453350 -0.475950 0.398520 5.135497 -1.080583 4.639603 63.719227 18.835909 2.215479 24.935071 67.195962 10.947800 1.610435 -2.084698 -0.324750 0.333420 -0.005770 -0.128620 
-0.624430 17.177200 -1.577080 -4.351766 19.323763 -0.032374 -14.563029 12.369241 2.358699 10.384167 -0.936974 -14.125609 -6.291041 5.640165 12.797259 -0.636754 4.020764 3.503681 0.400530 0.031750 0.081770 18.735933 -12.604863 2.337915 -15.399953 0.534875 -9.766428 7.133022 -7.485754 19.603712 -0.187074 -5.126792 2.978849 0.174640 0.598100 0.156800 -5.655263 2.800160 -6.610614 19.009828 1.593487 0.572836 -14.719562 1.582886 10.225152 5.145071 -0.092063 -7.123095 0.813521 -2.878063 29.873931 -3.770210 -4.880200 0.359340 -13.838993 2.747492 2.849263 -50.052977 1.791091 -9.268856 22.597796 -60.897618 -12.850826 -3.695026 3.066384 0.233930 0.456350 -0.442080 0.390630 3.463112 -0.990351 5.040538 63.864546 20.419733 3.374372 23.655685 68.871875 10.412008 1.576249 -2.143651 -0.294760 0.285640 -0.039790 -0.151850 
-0.606910 17.198760 -1.589690 -4.086006 20.401252 -0.041818 -14.552326 12.292792 2.366248 10.171794 -0.966336 -14.197809 -6.403773 5.607563 12.736779 -0.663225 3.971544 3.498130 0.439580 0.071950 0.127100 18.745049 -12.693490 2.351945 -15.147104 0.439175 -9.056970 6.221159 -7.064834 18.515811 -0.203131 -5.031835 3.005036 0.197930 0.546700 0.169630 -5.730942 3.076627 -6.645640 19.146731 1.886703 0.550746 -15.033205 1.908442 10.978653 5.659503 1.148395 -7.601623 3.028245 -3.859370 30.148647 -4.403190 -4.730560 -0.209060 -13.127251 1.897726 3.362301 -48.653642 2.758525 -9.744489 26.252512 -64.455527 -15.935799 -3.638656 3.060271 0.254830 0.439710 -0.409200 0.384410 1.895926 -0.834770 5.461147 63.784395 21.843573 4.077745 21.005073 70.508429 8.928857 1.536549 -2.164921 -0.281890 0.260130 -0.062230 -0.172720 
-0.587870 17.215150 -1.603770 -3.973543 21.813812 0.136059 -14.563514 12.216962 2.376038 9.984421 -1.069371 -14.696679 -6.362024 5.523901 12.672013 -0.704009 3.937557 3.508775 0.441050 0.064130 0.148550 18.738117 -12.752880 2.365031 -14.776270 0.387956 -8.676963 5.633483 -6.814825 17.867594 -0.196270 -4.998587 3.018469 0.205250 0.550710 0.186220 -5.758398 3.299829 -6.663875 18.956688 2.207701 0.477609 -14.868512 2.176791 11.403067 6.056338 2.496274 -8.007971 5.436031 -5.099683 29.377961 -5.251810 -4.743420 0.072130 -12.417389 1.274987 3.626018 -46.922994 3.448390 -9.772672 28.797023 -67.771563 -18.559319 -3.645494 3.042395 0.247450 0.466210 -0.419050 0.371510 0.525568 -1.045504 5.888601 63.194380 22.275152 4.294303 18.504252 72.935979 7.514699 1.478402 -2.193812 -0.287950 0.253040 -0.055090 -0.189650 
-0.563710 17.228790 -1.623460 -3.906586 23.288709 0.209408 -14.582531 12.172489 2.369608 9.673833 -1.170157 -15.257117 -5.982609 5.408955 12.939926 -0.761110 3.864779 3.519897 0.459960 0.088570 0.182580 18.723074 -12.800759 2.377590 -14.569300 0.321714 -8.305882 5.283397 -6.675858 17.497786 -0.200938 -4.979342 3.022149 0.234600 0.526040 0.172450 -5.770150 3.450037 -6.676858 18.620061 2.510864 0.593799 -14.289731 2.439564 11.820128 6.301668 3.741115 -8.413387 7.635832 -6.477622 28.938969 -5.690460 -5.037710 -0.499900 -11.621862 0.422767 3.853534 -45.256657 3.630907 -9.609359 29.913674 -70.151351 -20.222037 -3.628825 3.012831 0.257700 0.462430 -0.412840 0.355040 -0.623872 -0.999148 6.167946 61.892390 22.657670 4.129525 14.960736 74.279832 5.203442 1.426762 -2.178310 -0.300610 0.265490 -0.059070 -0.212640 
-0.527770 17.248190 -1.650750 -3.830380 24.596269 0.263806 -14.593973 12.114391 2.365646 9.263671 -1.260865 -15.471338 -5.629233 5.205496 12.775927 -0.786627 3.746555 3.538142 0.505740 0.135940 0.247880 18.713817 -12.844789 2.408287 -14.514387 0.267748 -7.923004 5.016862 -6.514429 16.730005 -0.235115 -4.939139 3.012682 0.252520 0.466820 0.198720 -5.797861 3.625983 -6.710016 18.417950 2.893888 0.803407 -13.793545 2.777611 12.160565 6.605512 5.019329 -8.970625 9.975145 -8.033391 28.773846 -6.565870 -5.093560 -1.369370 -10.979232 -0.693667 4.185900 -43.197534 3.933178 -9.387682 29.162554 -72.755462 -21.008541 -3.602020 3.054633 0.276060 0.442680 -0.364150 0.341060 -1.785872 -0.642025 6.560697 60.620748 22.811851 3.429229 9.511189 74.670544 1.397426 1.387104 -2.145536 -0.270760 0.238360 -0.083450 -0.231180 
-0.488490 17.259070 -1.681020 -3.819501 25.838297 0.336579 -14.617335 12.070211 2.350139 8.938802 -1.315474 -15.727787 -5.230357 5.055770 12.857371 -0.833926 3.652702 3.539167 0.552360 0.202160 0.293640 18.695405 -12.872779 2.428850 -14.574311 0.243924 -7.761114 4.950483 -6.441995 16.245578 -0.261357 -4.914138 3.007887 0.289550 0.418390 0.206210 -5.788057 3.756349 -6.715569 17.889521 3.457225 1.097732 -12.738085 3.235091 12.376738 6.804646 6.264801 -9.377627 12.309052 -9.665337 28.348370 -6.989230 -5.425320 -2.864420 -10.521104 -1.767613 4.361430 -41.063332 3.652050 -8.782081 27.168697 -75.118488 -20.853613 -3.593768 3.094329 0.295320 0.426250 -0.325140 0.326040 -2.519542 -0.386443 6.702816 58.590075 22.527704 2.417461 3.622249 74.584719 -2.564334 1.328379 -2.072986 -0.251630 0.239830 -0.093880 -0.248520 
